<svg width="106" height="92" viewBox="0 0 106 92" fill="none" xmlns="http://www.w3.org/2000/svg">
<path d="M22.1285 1.50341C-12.9038 17.54 1.40519 64.6474 12.7537 85.6953C14.6451 89.2033 16.0662 94.2147 24.1021 88.201C33.9704 80.8161 26.302 78.1782 26.0758 72.6656C25.0479 47.6085 29.0363 19.5445 30.0231 10.524C31.1196 0.501132 33.4769 -2.00458 22.1285 1.50341Z" fill="#B1B3A9"/>
<path opacity="0.84" d="M7.30399 35.1419C1.88759 58.7935 14.69 81.4387 21.0912 91C23.5532 89.9935 25.5228 87.9806 27 86.471C24.538 83.4516 22.076 76.4065 21.5836 66.8452C20.9098 53.7613 25.0304 14.0065 25.0304 13C24.0456 13.5032 12.7204 16.5226 7.30399 35.1419Z" fill="#34383D"/>
<path d="M83.8715 1.50341C118.904 17.54 104.595 64.6474 93.2463 85.6953C91.3549 89.2033 89.9338 94.2147 81.8979 88.201C72.0296 80.8161 79.698 78.1782 79.9242 72.6656C80.9521 47.6085 76.9637 19.5445 75.9769 10.524C74.8804 0.501132 72.5231 -2.00458 83.8715 1.50341Z" fill="#B1B3A9"/>
<path opacity="0.84" d="M98.696 35.1419C104.112 58.7935 91.31 81.4387 84.9088 91C82.4468 89.9935 80.4772 87.9806 79 86.471C81.462 83.4516 83.924 76.4065 84.4164 66.8452C85.0902 53.7613 80.9696 14.0065 80.9696 13C81.9544 13.5032 93.2796 16.5226 98.696 35.1419Z" fill="#34383D"/>
</svg>
