<svg width="100" height="156" viewBox="0 0 100 156" fill="none" xmlns="http://www.w3.org/2000/svg">
<mask id="mask0_4_53" style="mask-type:alpha" maskUnits="userSpaceOnUse" x="0" y="0" width="100" height="156">
<path d="M3.8147e-06 30C3.8147e-06 13.4315 13.4315 7.62939e-06 30 7.62939e-06H70C86.5685 7.62939e-06 100 13.4315 100 30V156H3.8147e-06V30Z" fill="#414141"/>
</mask>
<g mask="url(#mask0_4_53)">
<path d="M18.0328 21.8545C6.55738 33.5546 2.1858 29.8318 3.8147e-06 34.0864V-11H100V31.9591C97.8142 32.4909 96.7213 31.9591 94.5355 33.0227C91.8033 28.7682 84.153 23.9818 81.9672 22.9182C81.9672 26.1091 79.8712 34.4435 79.235 35.6818C78.6885 36.7455 70.4918 22.9182 65.0273 17.0682C66.1202 22.3864 64.1394 37.2773 65.5738 41C63.9344 36.7454 51.9126 25.5773 49.1803 19.1955C47.541 26.1091 36.0656 37.8091 32.2404 40.4682C34.4262 36.2136 34.9727 23.0955 34.9727 17.0682C31.694 22.3864 24.5902 30.3636 21.8579 35.6818C17.4863 33.0227 18.0328 28.7682 18.0328 21.8545Z" fill="#CBCCBE"/>
</g>
</svg>
