<svg width="110" height="156" viewBox="0 0 110 156" fill="none" xmlns="http://www.w3.org/2000/svg">
<path d="M11.1187 19H56.4535C60.5599 47.5993 64.8288 121.163 54.9752 121.355C44.6878 121.557 37.872 116.243 36.25 113.328C33.2623 115.731 25.0824 123.114 21.9596 121.857C19.4183 120.835 18.745 109.317 19.003 103.795C8.71342 106.191 2.74157 104.798 1.26327 103.795C-3.66443 77.2021 7.14106 47.6977 11.1187 19Z" fill="#CBCCBE"/>
<path d="M98.8813 19H53.5465C49.4401 47.5993 45.1712 121.163 55.0248 121.355C65.3122 121.557 72.128 116.243 73.75 113.328C76.7377 115.731 84.9176 123.114 88.0404 121.857C90.5817 120.835 91.255 109.317 90.997 103.795C101.287 106.191 107.258 104.798 108.737 103.795C113.664 77.2021 102.859 47.6977 98.8813 19Z" fill="#CBCCBE"/>
<mask id="mask0_316_36" style="mask-type:alpha" maskUnits="userSpaceOnUse" x="5" y="0" width="100" height="156">
<path d="M5 30C5 13.4315 18.4315 0 35 0H75C91.5685 0 105 13.4315 105 30V156H5V30Z" fill="#414141"/>
</mask>
<g mask="url(#mask0_316_36)">
<rect x="5" y="-20" width="100" height="122" fill="#CBCCBE"/>
</g>
</svg>
