<svg width="124" height="45" viewBox="0 0 124 45" fill="none" xmlns="http://www.w3.org/2000/svg">
<mask id="mask0_2_40" style="mask-type:alpha" maskUnits="userSpaceOnUse" x="0" y="1" width="44" height="45">
<path d="M41.8496 29.5717C44.6941 24.8377 43.1623 18.6941 38.4283 15.8496L15.2848 1.94359L0.86374 25.9443L32.5789 45.0007L41.8496 29.5717Z" fill="black"/>
</mask>
<g mask="url(#mask0_2_40)">
<ellipse opacity="0.5" cx="26.9999" cy="19.5" rx="15" ry="19.5" fill="#6C6C68"/>
<ellipse cx="25" cy="13.5" rx="13" ry="16.5" fill="#F5F2E6"/>
<ellipse cx="25.4999" cy="12.5" rx="8.5" ry="12.5" fill="#454C57"/>
</g>
<path d="M11.9999 6.5C7.9999 7.7 4.33323 5.33334 2.9999 4C7.4999 2 7.85071 -2.35302e-06 12.9999 0C18.076 2.3196e-06 33.0659 9.71798 41.1547 15.263C41.3785 15.4165 41.5251 15.6512 41.5697 15.919L41.8407 17.5449C41.9294 18.0773 41.5797 18.584 41.0504 18.6899L39.8994 18.9201C39.6433 18.9713 39.3773 18.9203 39.1583 18.778L29.4999 12.5L19.5754 7.04153C19.5252 7.0139 19.4782 6.98201 19.4321 6.94798C18.5288 6.28175 15.8972 5.33081 11.9999 6.5Z" fill="#414141"/>
<mask id="mask1_2_40" style="mask-type:alpha" maskUnits="userSpaceOnUse" x="80" y="1" width="44" height="45">
<path d="M82.1503 29.5717C79.3059 24.8377 80.8376 18.6941 85.5716 15.8496L108.715 1.94359L123.136 25.9443L91.421 45.0007L82.1503 29.5717Z" fill="black"/>
</mask>
<g mask="url(#mask1_2_40)">
<ellipse opacity="0.5" cx="15" cy="19.5" rx="15" ry="19.5" transform="matrix(-1 0 0 1 112 0)" fill="#6C6C68"/>
<ellipse cx="13" cy="16.5" rx="13" ry="16.5" transform="matrix(-1 0 0 1 112 -3)" fill="#F5F2E6"/>
<ellipse cx="8.5" cy="12.5" rx="8.5" ry="12.5" transform="matrix(-1 0 0 1 107 0)" fill="#454C57"/>
</g>
<path d="M112 6.5C116 7.7 119.667 5.33334 121 4C116.5 2 116.149 -2.35302e-06 111 0C105.924 2.3196e-06 90.934 9.71798 82.8453 15.263C82.6214 15.4165 82.4748 15.6512 82.4302 15.919L82.1592 17.5449C82.0705 18.0773 82.4203 18.584 82.9495 18.6899L84.1005 18.9201C84.3567 18.9713 84.6227 18.9203 84.8417 18.778L94.5001 12.5L104.425 7.04153C104.475 7.0139 104.522 6.98201 104.568 6.94798C105.471 6.28175 108.103 5.33081 112 6.5Z" fill="#414141"/>
</svg>
