<svg width="92" height="156" viewBox="0 0 92 156" fill="none" xmlns="http://www.w3.org/2000/svg">
<mask id="mask0_4_53" style="mask-type:alpha" maskUnits="userSpaceOnUse" x="0" y="0" width="92" height="156">
<path d="M0 30C0 13.4315 13.4315 0 30 0H62C78.5685 0 92 13.4315 92 30V156H0V30Z" fill="#414141"/>
</mask>
<g mask="url(#mask0_4_53)">
<path d="M16.5902 21.3273C6.03281 32.1273 2.01095 28.6909 2.28882e-05 32.6182V12H92V30.6545C89.9891 31.1455 88.9836 30.6545 86.9727 31.6364C84.459 27.7091 77.4208 23.2909 75.4099 22.3091C75.4099 25.2545 73.4815 32.9478 72.8962 34.0909C72.3935 35.0727 64.8525 22.3091 59.8252 16.9091C60.8306 21.8182 59.0082 35.5636 60.3279 39C58.8197 35.0727 47.7596 24.7636 45.2459 18.8727C43.7377 25.2545 33.1804 36.0545 29.6612 38.5091C31.6722 34.5818 32.1749 22.4727 32.1749 16.9091C29.1585 21.8182 22.623 29.1818 20.1093 34.0909C16.0875 31.6364 16.5902 27.7091 16.5902 21.3273Z" fill="#CBCCBE"/>
<rect x="2.28882e-05" y="-9" width="91" height="25" fill="#CBCCBE"/>
</g>
</svg>
