<svg width="96" height="156" viewBox="0 0 96 156" fill="none" xmlns="http://www.w3.org/2000/svg">
<path d="M81.1915 101.954L96 100.955L94.9787 47.9917L48 36V116.444L63.3192 111.448C68.766 115.278 79.966 122.74 81.1915 121.941C82.417 121.141 81.7021 108.283 81.1915 101.954Z" fill="#CBCCBE"/>
<path d="M14.8085 101.954L7.62939e-06 100.955L1.02128 47.9917L48 36V116.444L32.6809 111.448C27.2341 115.278 16.034 122.74 14.8085 121.941C13.583 121.141 14.2979 108.283 14.8085 101.954Z" fill="#CBCCBE"/>
<mask id="mask0_4_61" style="mask-type:alpha" maskUnits="userSpaceOnUse" x="2" y="0" width="92" height="156">
<path d="M2 30C2 13.4315 15.4315 0 32 0H64C80.5685 0 94 13.4315 94 30V156H2V30Z" fill="#414141"/>
</mask>
<g mask="url(#mask0_4_61)">
<path d="M2 30C2 13.4315 15.4315 0 32 0H64C80.5685 0 94 13.4315 94 30V36H2V30Z" fill="#414141"/>
<path d="M2.00002 30C2.00002 13.4315 15.4315 0 32 0H64C80.5686 0 94 13.4315 94 30V35.144H2.00002V30Z" fill="#F9F3DF"/>
<path d="M6.03371 21.0864L3 33.6379C9.40449 37.8217 23.0225 46.7918 26.2584 49.2016C30.3034 52.214 28.2809 60.2469 26.2584 64.2634C24.236 68.2798 21.7079 76.3128 22.2135 82.3374C22.7191 88.3621 24.7416 103.424 28.2809 112.461C31.1124 119.691 42.6067 121.833 48 122V7.02881L6.03371 21.0864Z" fill="#F9F3DF"/>
<path d="M89.9663 21.0864L93 33.6379C86.5955 37.8217 72.9775 46.7918 69.7416 49.2016C65.6966 52.214 67.7191 60.2469 69.7416 64.2634C71.764 68.2798 74.2921 76.3128 73.7865 82.3374C73.2809 88.3621 71.2584 103.424 67.7191 112.461C64.8876 119.691 53.3933 121.833 48 122V7.02881L89.9663 21.0864Z" fill="#F9F3DF"/>
</g>
</svg>
