<svg width="39" height="51" viewBox="0 0 39 51" fill="none" xmlns="http://www.w3.org/2000/svg">
<path d="M20 3.71858C15 -0.211467 10.5 -0.211467 8.5 1.2623L4 13.5437L34 16L32.5 5.68361C31.5 4.04608 32 1.42608 28.5 0.279795C25 -0.866486 23.5 1.75356 20 3.71858Z" fill="#CBCCBE"/>
<path d="M4.58204 5.52806C9.18215 -1.78814 12.2039 -0.94275 19.7666 7.03571C21.285 4.0204 24.8281 2.51275 27.3589 0C30.9019 1.0051 32.2898 2.5811 33.9388 5.52806C36.4696 10.051 35.5434 13.0387 36.9757 17.5893C39.5065 25.6301 40.3329 29.0139 35.4572 38.6964C34.445 40.7066 32.4204 41.7117 28.8773 46.7372C27.5007 48.6898 22.4142 52.645 17.2358 50.2551C10.3995 47.0999 5.10242 39.6973 2.55744 34.676C-2.44644 24.8032 1.4117 17.9331 1.54516 17.0867C1.67862 16.2403 1.43884 10.5271 4.58204 5.52806Z" fill="#B1B3A9"/>
<path d="M18.5262 35.843C18.5262 33.8579 19.0255 21.9477 18.5262 17.9776L18.0269 15.9925L20.5235 15C21.0229 15.4963 22.5208 16.985 21.5222 17.9776C20.5235 18.9701 20.9261 33.5695 21.5222 35.3467C22.0215 36.8355 22.9493 37.4534 23.0202 37.828C30.5101 38.3243 37.5007 29.3916 38 27.9028C37.5007 30.3841 35.5436 31.6342 33.5061 35.3467C32.0755 37.9534 31.7574 39.1657 30.0108 39.8131C27.3331 40.8056 22.231 40.5873 21.0229 40.8056C15.5303 41.7981 8.76683 38.6853 8.04034 38.3243C7.69731 38.1538 7.04169 37.3318 6.54236 36.3392C5.04438 35.843 1.54908 30.3841 2.04838 29.8878C5.13871 32.9592 7.04168 34.3542 9.53832 34.8505C11.5356 36.8355 11.0363 37.3318 15.5302 37.828C17.0282 37.828 18.0269 37.3318 18.5262 35.843Z" fill="#414141"/>
<path d="M9.62429 9.6992C8.63061 9.19665 7.14001 9.19668 8.63062 6.68393C9.34202 5.96442 10.1212 5.67883 10.6181 5.63418C12.6056 5.67883 14.2875 8.58327 16.5805 11.2069C21.0523 10.2018 21.4175 11.5247 22.046 11.2069C24.0335 8.19155 24.8643 7.48632 27.0147 6.18136C29.165 4.8764 29.9959 4.17119 31.4865 6.68392C32.8375 8.96135 31.1722 8.85302 30.4927 9.19665C29.499 9.6992 26.021 10.7043 23.0397 14.7247C22.4516 19.6738 19.4722 19.1776 17.5742 18.7451C16.2099 18.5417 15.6942 15.0385 14.593 13.7196C13.7437 13.095 11.1924 10.3073 9.62429 9.6992Z" fill="#414141"/>
</svg>
