<svg width="114" height="165" viewBox="0 0 114 165" fill="none" xmlns="http://www.w3.org/2000/svg">
<mask id="mask0_306_2" style="mask-type:alpha" maskUnits="userSpaceOnUse" x="0" y="0" width="114" height="165">
<path d="M3.43323e-05 30C3.43323e-05 13.4315 13.4315 0 30 0H84C100.569 0 114 13.4315 114 30V165H3.43323e-05V30Z" fill="#414141"/>
</mask>
<g mask="url(#mask0_306_2)">
<path d="M20.5574 26.4273C7.47546 39.8099 2.49186 35.5518 6.10352e-05 40.4182V14.8696H114V37.985C111.508 38.5933 110.262 37.985 107.77 39.2016C104.656 34.3352 95.9344 28.8605 93.4426 27.6439C93.4426 31.2937 91.0532 40.8266 90.3279 42.2431C89.7049 43.4597 80.3607 27.6439 74.1311 20.9526C75.3771 27.0356 73.1189 44.068 74.7541 48.326C72.8853 43.4596 59.1803 30.6854 56.0656 23.3858C54.1967 31.2937 41.1148 44.6763 36.7541 47.7178C39.2459 42.8514 39.8689 27.8466 39.8689 20.9526C36.1312 27.0356 28.0328 36.1601 24.9181 42.2431C19.9345 39.2016 20.5574 34.3352 20.5574 26.4273Z" fill="#CBCCBE"/>
<rect x="6.10352e-05" y="-11.1522" width="112.761" height="30.9782" fill="#CBCCBE"/>
</g>
</svg>
