<svg width="100" height="122" viewBox="0 0 100 122" fill="none" xmlns="http://www.w3.org/2000/svg">
<path d="M70 0H30C13.4315 0 0 13.4315 0 30V35C6.40449 39.1849 25.0224 46.7729 28.2584 49.1834C32.3033 52.1965 30.2809 60.2314 28.2584 64.2489C26.2359 68.2664 23.7078 76.3013 24.2135 82.3275C24.7191 88.3537 26.7415 103.419 30.2809 112.459C33.1123 119.69 44.6067 121.833 50 122C55.3932 121.833 66.8876 119.69 69.7191 112.459C73.2584 103.419 75.2809 88.3537 75.7865 82.3275C76.2921 76.3013 73.764 68.2664 71.7415 64.2489C69.7191 60.2314 67.6966 52.1965 71.7415 49.1834C74.9775 46.7729 93.5955 39.1849 100 35V30C100 13.4315 86.5685 0 70 0Z" fill="#F9F3DF"/>
</svg>
