<svg width="114" height="161" viewBox="0 0 114 161" fill="none" xmlns="http://www.w3.org/2000/svg">
<mask id="mask0_306_7" style="mask-type:alpha" maskUnits="userSpaceOnUse" x="0" y="0" width="114" height="161">
<path d="M0 30C0 13.4315 13.4315 0 30 0H84C100.569 0 114 13.4315 114 30V161H0V30Z" fill="#414141"/>
</mask>
<g mask="url(#mask0_306_7)">
<path class="hat-primary" d="M20.5574 35.5577C7.4754 48.9403 2.4918 44.6822 0 49.5486V-4H114L114 47.1154C111.508 47.7237 110.262 47.1154 107.77 48.332C104.656 43.4656 95.9344 37.9909 93.4426 36.7743C93.4426 40.4241 91.0531 49.957 90.3278 51.3735C89.7048 52.5901 80.3606 36.7743 74.1311 30.083C75.377 36.166 73.1188 53.1984 74.754 57.4565C72.8852 52.5901 59.1803 39.8158 56.0655 32.5162C54.1967 40.4241 41.1147 53.8067 36.7541 56.8482C39.2459 51.9818 39.8688 36.9771 39.8688 30.083C36.1311 36.166 28.0328 45.2905 24.918 51.3735C19.9344 48.332 20.5574 43.4656 20.5574 35.5577Z" fill="#CBCCBE"/>
</g>
</svg>
